<?xml version="1.0" encoding="UTF-8"?>
<!DOCTYPE svg PUBLIC "-//W3C//DTD SVG 1.1//EN" "http://www.w3.org/Graphics/SVG/1.1/DTD/svg11.dtd">
<svg version="1.2" width="225mm" height="100mm" viewBox="0 0 22500 10000" preserveAspectRatio="xMidYMid" fill-rule="evenodd" clip-path="url(#presentation_clip_path)" stroke-width="28.222" stroke-linejoin="round" xmlns="http://www.w3.org/2000/svg" xmlns:ooo="http://xml.openoffice.org/svg/export" xmlns:xlink="http://www.w3.org/1999/xlink" xml:space="preserve">
 <defs class="ClipPathGroup">
  <clipPath id="presentation_clip_path" clipPathUnits="userSpaceOnUse">
   <rect x="0" y="0" width="22500" height="10000"/>
  </clipPath>
 </defs>
 <defs class="TextShapeIndex">
  <g ooo:slide="id1" ooo:id-list="id3 id4 id5 id6 id7 id8 id9 id10 id11 id12 id13 id14 id15 id16 id17 id18 id19 id20 id21 id22 id23 id24 id25 id26 id27 id28 id29 id30"/>
 </defs>
 <defs class="EmbeddedBulletChars">
  <g id="bullet-char-template(57356)" transform="scale(0.00048828125,-0.00048828125)">
   <path d="M 580,1141 L 1163,571 580,0 -4,571 580,1141 Z"/>
  </g>
  <g id="bullet-char-template(57354)" transform="scale(0.00048828125,-0.00048828125)">
   <path d="M 8,1128 L 1137,1128 1137,0 8,0 8,1128 Z"/>
  </g>
  <g id="bullet-char-template(10146)" transform="scale(0.00048828125,-0.00048828125)">
   <path d="M 174,0 L 602,739 174,1481 1456,739 174,0 Z M 1358,739 L 309,1346 659,739 1358,739 Z"/>
  </g>
  <g id="bullet-char-template(10132)" transform="scale(0.00048828125,-0.00048828125)">
   <path d="M 2015,739 L 1276,0 717,0 1260,543 174,543 174,936 1260,936 717,1481 1274,1481 2015,739 Z"/>
  </g>
  <g id="bullet-char-template(10007)" transform="scale(0.00048828125,-0.00048828125)">
   <path d="M 0,-2 C -7,14 -16,27 -25,37 L 356,567 C 262,823 215,952 215,954 215,979 228,992 255,992 264,992 276,990 289,987 310,991 331,999 354,1012 L 381,999 492,748 772,1049 836,1024 860,1049 C 881,1039 901,1025 922,1006 886,937 835,863 770,784 769,783 710,716 594,584 L 774,223 C 774,196 753,168 711,139 L 727,119 C 717,90 699,76 672,76 641,76 570,178 457,381 L 164,-76 C 142,-110 111,-127 72,-127 30,-127 9,-110 8,-76 1,-67 -2,-52 -2,-32 -2,-23 -1,-13 0,-2 Z"/>
  </g>
  <g id="bullet-char-template(10004)" transform="scale(0.00048828125,-0.00048828125)">
   <path d="M 285,-33 C 182,-33 111,30 74,156 52,228 41,333 41,471 41,549 55,616 82,672 116,743 169,778 240,778 293,778 328,747 346,684 L 369,508 C 377,444 397,411 428,410 L 1163,1116 C 1174,1127 1196,1133 1229,1133 1271,1133 1292,1118 1292,1087 L 1292,965 C 1292,929 1282,901 1262,881 L 442,47 C 390,-6 338,-33 285,-33 Z"/>
  </g>
  <g id="bullet-char-template(9679)" transform="scale(0.00048828125,-0.00048828125)">
   <path d="M 813,0 C 632,0 489,54 383,161 276,268 223,411 223,592 223,773 276,916 383,1023 489,1130 632,1184 813,1184 992,1184 1136,1130 1245,1023 1353,916 1407,772 1407,592 1407,412 1353,268 1245,161 1136,54 992,0 813,0 Z"/>
  </g>
  <g id="bullet-char-template(8226)" transform="scale(0.00048828125,-0.00048828125)">
   <path d="M 346,457 C 273,457 209,483 155,535 101,586 74,649 74,723 74,796 101,859 155,911 209,963 273,989 346,989 419,989 480,963 531,910 582,859 608,796 608,723 608,648 583,586 532,535 482,483 420,457 346,457 Z"/>
  </g>
  <g id="bullet-char-template(8211)" transform="scale(0.00048828125,-0.00048828125)">
   <path d="M -4,459 L 1135,459 1135,606 -4,606 -4,459 Z"/>
  </g>
 </defs>
 <defs class="TextEmbeddedBitmaps"/>
 <g>
  <g id="id2" class="Master_Slide">
   <g id="bg-id2" class="Background"/>
   <g id="bo-id2" class="BackgroundObjects"/>
  </g>
 </g>
 <g class="SlideGroup">
  <g>
   <g id="id1" class="Slide" clip-path="url(#presentation_clip_path)">
    <g class="Page">
     <g class="Group">
      <g class="Group">
       <g class="Group">
        <g class="com.sun.star.drawing.CustomShape">
         <g id="id3">
          <path fill="rgb(114,159,207)" stroke="none" d="M 10889,6080 C 11609,6080 12159,6630 12159,7350 12159,8070 11609,8620 10889,8620 10169,8620 9619,8070 9619,7350 9619,6630 10169,6080 10889,6080 Z M 9619,6080 L 9619,6080 Z M 12160,8621 L 12160,8621 Z"/>
          <text class="TextShape"><tspan class="TextParagraph" font-family="URW Gothic L, sans-serif" font-size="1693px" font-weight="600"><tspan class="TextPosition" x="10297" y="8004"><tspan fill="rgb(255,255,255)" stroke="none">D</tspan></tspan></tspan></text>
         </g>
        </g>
        <g class="com.sun.star.drawing.CustomShape">
         <g id="id4">
          <path fill="rgb(114,159,207)" stroke="none" d="M 13429,6080 C 14149,6080 14699,6630 14699,7350 14699,8070 14149,8620 13429,8620 12709,8620 12159,8070 12159,7350 12159,6630 12709,6080 13429,6080 Z M 12159,6080 L 12159,6080 Z M 14700,8621 L 14700,8621 Z"/>
          <text class="TextShape"><tspan class="TextParagraph" font-family="URW Gothic L, sans-serif" font-size="1693px" font-weight="600"><tspan class="TextPosition" x="12718" y="8004"><tspan fill="rgb(255,255,255)" stroke="none">O</tspan></tspan></tspan></text>
         </g>
        </g>
        <g class="com.sun.star.drawing.CustomShape">
         <g id="id5">
          <path fill="rgb(114,159,207)" stroke="none" d="M 15969,6080 C 16689,6080 17239,6630 17239,7350 17239,8070 16689,8620 15969,8620 15249,8620 14699,8070 14699,7350 14699,6630 15249,6080 15969,6080 Z M 14699,6080 L 14699,6080 Z M 17240,8621 L 17240,8621 Z"/>
          <text class="TextShape"><tspan class="TextParagraph" font-family="URW Gothic L, sans-serif" font-size="1693px" font-weight="600"><tspan class="TextPosition" x="15308" y="8004"><tspan fill="rgb(255,255,255)" stroke="none">C</tspan></tspan></tspan></text>
         </g>
        </g>
        <g class="com.sun.star.drawing.CustomShape">
         <g id="id6">
          <path fill="rgb(114,159,207)" stroke="none" d="M 12159,3870 C 12879,3870 13429,4420 13429,5140 13429,5860 12879,6410 12159,6410 11439,6410 10889,5860 10889,5140 10889,4420 11439,3870 12159,3870 Z M 10889,3870 L 10889,3870 Z M 13430,6411 L 13430,6411 Z"/>
          <text class="TextShape"><tspan class="TextParagraph" font-family="URW Gothic L, sans-serif" font-size="1905px" font-weight="600"><tspan class="TextPosition" x="11664" y="5877"><tspan fill="rgb(255,255,255)" stroke="none">E</tspan></tspan></tspan></text>
         </g>
        </g>
        <g class="com.sun.star.drawing.CustomShape">
         <g id="id7">
          <path fill="rgb(114,159,207)" stroke="none" d="M 14699,3870 C 15419,3870 15969,4420 15969,5140 15969,5860 15419,6410 14699,6410 13979,6410 13429,5860 13429,5140 13429,4420 13979,3870 14699,3870 Z M 13429,3870 L 13429,3870 Z M 15970,6411 L 15970,6411 Z"/>
          <text class="TextShape"><tspan class="TextParagraph" font-family="URW Gothic L, sans-serif" font-size="1905px" font-weight="600"><tspan class="TextPosition" x="14204" y="5877"><tspan fill="rgb(255,255,255)" stroke="none">S</tspan></tspan></tspan></text>
         </g>
        </g>
        <g class="com.sun.star.drawing.CustomShape">
         <g id="id8">
          <path fill="rgb(114,159,207)" stroke="none" d="M 17239,3870 C 17959,3870 18509,4420 18509,5140 18509,5860 17959,6410 17239,6410 16519,6410 15969,5860 15969,5140 15969,4420 16519,3870 17239,3870 Z M 15969,3870 L 15969,3870 Z M 18510,6411 L 18510,6411 Z"/>
         </g>
        </g>
        <g class="com.sun.star.drawing.CustomShape">
         <g id="id9">
          <path fill="rgb(114,159,207)" stroke="none" d="M 13429,1660 C 14149,1660 14699,2210 14699,2930 14699,3650 14149,4200 13429,4200 12709,4200 12159,3650 12159,2930 12159,2210 12709,1660 13429,1660 Z M 12159,1660 L 12159,1660 Z M 14700,4201 L 14700,4201 Z"/>
         </g>
        </g>
        <g class="com.sun.star.drawing.CustomShape">
         <g id="id10">
          <path fill="rgb(114,159,207)" stroke="none" d="M 15969,1660 C 16689,1660 17239,2210 17239,2930 17239,3650 16689,4200 15969,4200 15249,4200 14699,3650 14699,2930 14699,2210 15249,1660 15969,1660 Z M 14699,1660 L 14699,1660 Z M 17240,4201 L 17240,4201 Z"/>
         </g>
        </g>
       </g>
       <g class="com.sun.star.drawing.LineShape">
        <g id="id11">
         <path fill="none" stroke="rgb(114,159,207)" d="M 17493,3413 L 19271,1000" stroke-width="230" stroke-linecap="round"/>
        </g>
       </g>
       <g class="Group">
        <g class="Group">
         <g class="com.sun.star.drawing.CustomShape">
          <g id="id12">
           <path fill="rgb(255,255,255)" stroke="none" d="M 17976,4305 L 17949,4279 17921,4254 17890,4230 17859,4208 17825,4186 17790,4166 17754,4147 17716,4129 17678,4113 17638,4098 17597,4084 17555,4073 17513,4062 17469,4053 17426,4046 17381,4040 17337,4036 17292,4034 17247,4033 17202,4034 17157,4036 17113,4040 17068,4046 17025,4053 16981,4062 16939,4073 16897,4084 16856,4098 16816,4113 16778,4129 16740,4147 16704,4166 16669,4186 16635,4208 16604,4230 16573,4254 16545,4279 16518,4305 16759,4426 16777,4409 16796,4392 16817,4376 16838,4361 16860,4346 16884,4333 16908,4320 16933,4308 16959,4297 16986,4287 17013,4278 17041,4270 17069,4263 17098,4258 17127,4253 17157,4249 17187,4246 17217,4245 17247,4244 17277,4245 17307,4246 17337,4249 17367,4253 17396,4258 17425,4263 17453,4270 17481,4278 17508,4287 17535,4297 17561,4308 17586,4320 17610,4333 17634,4346 17656,4361 17677,4376 17698,4392 17717,4409 17735,4426 17976,4305 Z M 16358,4033 L 16358,4033 Z M 18137,5308 L 18137,5308 Z"/>
          </g>
         </g>
         <g class="com.sun.star.drawing.CustomShape">
          <g id="id13">
           <path fill="rgb(255,255,255)" stroke="none" d="M 16654,4252 C 16739,4252 16804,4295 16804,4351 16804,4407 16739,4451 16654,4451 16569,4451 16504,4407 16504,4351 16504,4295 16569,4252 16654,4252 Z M 16504,4252 L 16504,4252 Z M 16805,4452 L 16805,4452 Z"/>
          </g>
         </g>
         <g class="com.sun.star.drawing.CustomShape">
          <g id="id14">
           <path fill="rgb(255,255,255)" stroke="none" d="M 17862,4268 C 17945,4268 18008,4311 18008,4367 18008,4423 17945,4467 17862,4467 17779,4467 17716,4423 17716,4367 17716,4311 17779,4268 17862,4268 Z M 17716,4268 L 17716,4268 Z M 18009,4468 L 18009,4468 Z"/>
          </g>
         </g>
        </g>
        <g class="Group">
         <g class="com.sun.star.drawing.CustomShape">
          <g id="id15">
           <path fill="rgb(255,255,255)" stroke="none" d="M 14166,2095 L 14139,2069 14111,2044 14080,2020 14049,1998 14015,1976 13980,1956 13944,1937 13906,1919 13868,1903 13828,1888 13787,1874 13745,1863 13703,1852 13659,1843 13616,1836 13571,1830 13527,1826 13482,1824 13437,1823 13392,1824 13347,1826 13303,1830 13258,1836 13215,1843 13171,1852 13129,1863 13087,1874 13046,1888 13006,1903 12968,1919 12930,1937 12894,1956 12859,1976 12825,1998 12794,2020 12763,2044 12735,2069 12708,2095 12949,2216 12967,2199 12986,2182 13007,2166 13028,2151 13050,2136 13074,2123 13098,2110 13123,2098 13149,2087 13176,2077 13203,2068 13231,2060 13259,2053 13288,2048 13317,2043 13347,2039 13377,2036 13407,2035 13437,2034 13467,2035 13497,2036 13527,2039 13557,2043 13586,2048 13615,2053 13643,2060 13671,2068 13698,2077 13725,2087 13751,2098 13776,2110 13800,2123 13824,2136 13846,2151 13867,2166 13888,2182 13907,2199 13925,2216 14166,2095 Z M 12548,1823 L 12548,1823 Z M 14327,3098 L 14327,3098 Z"/>
          </g>
         </g>
         <g class="com.sun.star.drawing.CustomShape">
          <g id="id16">
           <path fill="rgb(255,255,255)" stroke="none" d="M 12844,2042 C 12929,2042 12994,2085 12994,2141 12994,2197 12929,2241 12844,2241 12759,2241 12694,2197 12694,2141 12694,2085 12759,2042 12844,2042 Z M 12694,2042 L 12694,2042 Z M 12995,2242 L 12995,2242 Z"/>
          </g>
         </g>
         <g class="com.sun.star.drawing.CustomShape">
          <g id="id17">
           <path fill="rgb(255,255,255)" stroke="none" d="M 14052,2058 C 14135,2058 14198,2101 14198,2157 14198,2213 14135,2257 14052,2257 13969,2257 13906,2213 13906,2157 13906,2101 13969,2058 14052,2058 Z M 13906,2058 L 13906,2058 Z M 14199,2258 L 14199,2258 Z"/>
          </g>
         </g>
        </g>
        <g class="Group">
         <g class="com.sun.star.drawing.CustomShape">
          <g id="id18">
           <path fill="rgb(255,255,255)" stroke="none" d="M 16706,2095 L 16679,2069 16651,2044 16620,2020 16589,1998 16555,1976 16520,1956 16484,1937 16446,1919 16408,1903 16368,1888 16327,1874 16285,1863 16243,1852 16199,1843 16156,1836 16111,1830 16067,1826 16022,1824 15977,1823 15932,1824 15887,1826 15843,1830 15798,1836 15755,1843 15711,1852 15669,1863 15627,1874 15586,1888 15546,1903 15508,1919 15470,1937 15434,1956 15399,1976 15365,1998 15334,2020 15303,2044 15275,2069 15248,2095 15489,2216 15507,2199 15526,2182 15547,2166 15568,2151 15590,2136 15614,2123 15638,2110 15663,2098 15689,2087 15716,2077 15743,2068 15771,2060 15799,2053 15828,2048 15857,2043 15887,2039 15917,2036 15947,2035 15977,2034 16007,2035 16037,2036 16067,2039 16097,2043 16126,2048 16155,2053 16183,2060 16211,2068 16238,2077 16265,2087 16291,2098 16316,2110 16340,2123 16364,2136 16386,2151 16407,2166 16428,2182 16447,2199 16465,2216 16706,2095 Z M 15088,1823 L 15088,1823 Z M 16867,3098 L 16867,3098 Z"/>
          </g>
         </g>
         <g class="com.sun.star.drawing.CustomShape">
          <g id="id19">
           <path fill="rgb(255,255,255)" stroke="none" d="M 15384,2042 C 15469,2042 15534,2085 15534,2141 15534,2197 15469,2241 15384,2241 15299,2241 15234,2197 15234,2141 15234,2085 15299,2042 15384,2042 Z M 15234,2042 L 15234,2042 Z M 15535,2242 L 15535,2242 Z"/>
          </g>
         </g>
         <g class="com.sun.star.drawing.CustomShape">
          <g id="id20">
           <path fill="rgb(255,255,255)" stroke="none" d="M 16592,2058 C 16675,2058 16738,2101 16738,2157 16738,2213 16675,2257 16592,2257 16509,2257 16446,2213 16446,2157 16446,2101 16509,2058 16592,2058 Z M 16446,2058 L 16446,2058 Z M 16739,2258 L 16739,2258 Z"/>
          </g>
         </g>
        </g>
       </g>
       <g class="com.sun.star.drawing.LineShape">
        <g id="id21">
         <path fill="none" stroke="rgb(114,159,207)" d="M 18001,2524 L 18001,1381" stroke-width="230" stroke-linecap="round"/>
        </g>
       </g>
       <g class="Group">
        <g class="com.sun.star.drawing.CustomShape">
         <g id="id22">
          <path fill="rgb(52,101,164)" stroke="none" d="M 21501,2897 L 21506,2938 21506,2981 21504,3024 21496,3068 21485,3112 21469,3155 21448,3199 21425,3243 21397,3288 21365,3331 21329,3374 21290,3417 21247,3459 21200,3500 21149,3542 21096,3580 21039,3620 20980,3657 20917,3693 20851,3729 20784,3762 20714,3795 20641,3825 20567,3854 20490,3882 20413,3907 20334,3931 20253,3952 20171,3973 20089,3990 20007,4006 19924,4020 19840,4031 19757,4041 19674,4047 19591,4053 19510,4055 19429,4056 19348,4054 19270,4050 19193,4044 19117,4036 19044,4024 18972,4013 18903,3997 18836,3981 18773,3962 18712,3941 18654,3918 18598,3893 18546,3866 18498,3838 18453,3808 18411,3777 18373,3744 18339,3709 18309,3674 18283,3637 18261,3598 18243,3558 18229,3518 18220,3477 19860,3186 21501,2897 Z M 18075,2655 L 18075,2655 Z M 21646,3718 L 21646,3718 Z"/>
         </g>
        </g>
        <g class="com.sun.star.drawing.CustomShape">
         <g id="id23">
          <path fill="rgb(52,101,164)" stroke="none" d="M 18218,3474 L 18213,3433 18213,3390 18215,3347 18223,3303 18234,3259 18250,3216 18270,3172 18294,3127 18322,3083 18354,3040 18390,2996 18429,2954 18472,2912 18519,2870 18569,2830 18622,2790 18679,2751 18739,2713 18801,2677 18867,2642 18934,2608 19005,2576 19078,2545 19152,2516 19228,2488 19306,2463 19385,2439 19465,2418 19547,2397 19629,2380 19712,2364 19795,2350 19878,2339 19962,2329 20045,2323 20127,2317 20209,2315 20290,2314 20370,2316 20448,2321 20526,2326 20601,2335 20674,2346 20747,2358 20815,2373 20882,2390 20945,2409 21007,2430 21065,2452 21121,2477 21172,2504 21221,2533 21266,2562 21308,2594 21346,2627 21380,2662 21410,2697 21436,2734 21458,2773 21476,2813 21490,2853 21499,2894 19859,3185 18218,3474 Z M 21645,3717 L 21645,3717 Z M 18072,2653 L 18072,2653 Z"/>
         </g>
        </g>
        <g class="com.sun.star.drawing.LineShape">
         <g id="id24">
          <path fill="none" stroke="rgb(255,255,255)" d="M 18219,3475 L 21500,2896"/>
         </g>
        </g>
       </g>
       <g class="com.sun.star.drawing.CustomShape">
        <g id="id25">
         <path fill="rgb(114,159,207)" stroke="none" d="M 12159,3870 C 12879,3870 13429,4420 13429,5140 13429,5860 12879,6410 12159,6410 11439,6410 10889,5860 10889,5140 10889,4420 11439,3870 12159,3870 Z M 10889,3870 L 10889,3870 Z M 13430,6411 L 13430,6411 Z"/>
         <text class="TextShape"><tspan class="TextParagraph" font-family="URW Gothic L, sans-serif" font-size="1905px" font-weight="600"><tspan class="TextPosition" x="11664" y="5877"><tspan fill="rgb(255,255,255)" stroke="none">E</tspan></tspan></tspan></text>
        </g>
       </g>
       <g class="com.sun.star.drawing.CustomShape">
        <g id="id26">
         <path fill="rgb(255,255,255)" stroke="none" d="M 9635,3996 C 10297,3996 10804,4502 10804,5164 10804,5826 10297,6333 9635,6333 8973,6333 8467,5826 8467,5164 8467,4502 8973,3996 9635,3996 Z M 8467,3996 L 8467,3996 Z M 10805,6334 L 10805,6334 Z"/>
         <path fill="none" stroke="rgb(114,159,207)" d="M 9635,3996 C 10297,3996 10804,4502 10804,5164 10804,5826 10297,6333 9635,6333 8973,6333 8467,5826 8467,5164 8467,4502 8973,3996 9635,3996 Z"/>
         <text class="TextShape"><tspan class="TextParagraph" font-family="URW Gothic L, sans-serif" font-size="1905px" font-weight="600"><tspan class="TextPosition" x="9102" y="5902"><tspan fill="rgb(114,159,207)" stroke="none">P</tspan></tspan></tspan></text>
        </g>
       </g>
       <g class="com.sun.star.drawing.CustomShape">
        <g id="id27">
         <path fill="rgb(255,255,255)" stroke="none" d="M 7145,3996 C 7807,3996 8314,4502 8314,5164 8314,5826 7807,6333 7145,6333 6483,6333 5977,5826 5977,5164 5977,4502 6483,3996 7145,3996 Z M 5977,3996 L 5977,3996 Z M 8315,6334 L 8315,6334 Z"/>
         <path fill="none" stroke="rgb(114,159,207)" d="M 7145,3996 C 7807,3996 8314,4502 8314,5164 8314,5826 7807,6333 7145,6333 6483,6333 5977,5826 5977,5164 5977,4502 6483,3996 7145,3996 Z"/>
         <text class="TextShape"><tspan class="TextParagraph" font-family="URW Gothic L, sans-serif" font-size="1905px" font-weight="600"><tspan class="TextPosition" x="6440" y="5902"><tspan fill="rgb(114,159,207)" stroke="none">A</tspan></tspan></tspan></text>
        </g>
       </g>
       <g class="com.sun.star.drawing.CustomShape">
        <g id="id28">
         <path fill="rgb(255,255,255)" stroke="none" d="M 4656,3996 C 5318,3996 5825,4502 5825,5164 5825,5826 5318,6333 4656,6333 3994,6333 3488,5826 3488,5164 3488,4502 3994,3996 4656,3996 Z M 3488,3996 L 3488,3996 Z M 5826,6334 L 5826,6334 Z"/>
         <path fill="none" stroke="rgb(114,159,207)" d="M 4656,3996 C 5318,3996 5825,4502 5825,5164 5825,5826 5318,6333 4656,6333 3994,6333 3488,5826 3488,5164 3488,4502 3994,3996 4656,3996 Z"/>
         <text class="TextShape"><tspan class="TextParagraph" font-family="URW Gothic L, sans-serif" font-size="1905px" font-weight="600"><tspan class="TextPosition" x="4104" y="5902"><tspan fill="rgb(114,159,207)" stroke="none">R</tspan></tspan></tspan></text>
        </g>
       </g>
       <g class="com.sun.star.drawing.CustomShape">
        <g id="id29">
         <path fill="rgb(255,255,255)" stroke="none" d="M 2167,3996 C 2829,3996 3336,4502 3336,5164 3336,5826 2829,6333 2167,6333 1505,6333 999,5826 999,5164 999,4502 1505,3996 2167,3996 Z M 999,3996 L 999,3996 Z M 3337,6334 L 3337,6334 Z"/>
         <path fill="none" stroke="rgb(114,159,207)" d="M 2167,3996 C 2829,3996 3336,4502 3336,5164 3336,5826 2829,6333 2167,6333 1505,6333 999,5826 999,5164 999,4502 1505,3996 2167,3996 Z"/>
         <text class="TextShape"><tspan class="TextParagraph" font-family="URW Gothic L, sans-serif" font-size="1905px" font-weight="600"><tspan class="TextPosition" x="1367" y="5902"><tspan fill="rgb(114,159,207)" stroke="none">G</tspan></tspan></tspan></text>
        </g>
       </g>
       <g class="com.sun.star.drawing.CustomShape">
        <g id="id30">
         <path fill="rgb(255,255,255)" stroke="none" d="M 18474,6130 C 19136,6130 19643,6636 19643,7298 19643,7960 19136,8467 18474,8467 17812,8467 17306,7960 17306,7298 17306,6636 17812,6130 18474,6130 Z M 17306,6130 L 17306,6130 Z M 19644,8468 L 19644,8468 Z"/>
         <path fill="none" stroke="rgb(114,159,207)" d="M 18474,6130 C 19136,6130 19643,6636 19643,7298 19643,7960 19136,8467 18474,8467 17812,8467 17306,7960 17306,7298 17306,6636 17812,6130 18474,6130 Z"/>
         <text class="TextShape"><tspan class="TextParagraph" font-family="URW Gothic L, sans-serif" font-size="1905px" font-weight="600"><tspan class="TextPosition" x="17979" y="8036"><tspan fill="rgb(114,159,207)" stroke="none">S</tspan></tspan></tspan></text>
        </g>
       </g>
      </g>
     </g>
    </g>
   </g>
  </g>
 </g>
</svg>
